<svg id="b9cb5083-324e-4a50-a767-a73a37202f6f" data-name="Ebene 1" xmlns="http://www.w3.org/2000/svg" viewBox="0 0 106 71.46"><defs><style>.f7fe0e2e-096b-4403-a863-e7c28d46b83f{fill:#f26565;}.fc5943a7-5313-4b14-8ae4-2ae94f233e2f{fill:#5494fc;}.a7176de8-b788-4a94-88ab-4b237da8ef98{fill:none;}.be9504b5-5c94-40e4-8b60-4ca4a26f8ffb{fill:#3b3b3b;}</style></defs><title>echtJetztLogoSchrift3</title><path class="f7fe0e2e-096b-4403-a863-e7c28d46b83f" d="M517.48,369a78.46,78.46,0,0,0-1,8H493v-8Z" transform="translate(-479 -349.98)"/><path class="fc5943a7-5313-4b14-8ae4-2ae94f233e2f" d="M516.53,389H479v-8h36.58A75.12,75.12,0,0,0,516.53,389Z" transform="translate(-479 -349.98)"/><rect class="fc5943a7-5313-4b14-8ae4-2ae94f233e2f" x="69.81" y="31.08" width="14.41" height="12.87"/><path class="fc5943a7-5313-4b14-8ae4-2ae94f233e2f" d="M522,381.06v12.07c-3.62-3.55-5.8-7.67-6-12.07Z" transform="translate(-479 -349.98)"/><path class="a7176de8-b788-4a94-88ab-4b237da8ef98" d="M568.81,376.57H555.44v-13h7.4a25.28,25.28,0,0,0-38.13,0h4v13h-9.93a25.39,25.39,0,0,0-.26,3.62c0,.29,0,.58,0,.87A25.3,25.3,0,0,0,557,401.73a25.44,25.44,0,0,0,8.25-8.26,25.06,25.06,0,0,0,3.78-13.28A25.39,25.39,0,0,0,568.81,376.57Zm-24.72-12.84h7.2v12.68h-7.2Zm-10.36-.16h6.18v13h-6.18Z" transform="translate(-479 -349.98)"/><rect class="f7fe0e2e-096b-4403-a863-e7c28d46b83f" x="54.73" y="13.59" width="6.18" height="13"/><path class="f7fe0e2e-096b-4403-a863-e7c28d46b83f" d="M572,376.57H555.44v-13h9.17A23.43,23.43,0,0,1,572,376.57Z" transform="translate(-479 -349.98)"/><path class="f7fe0e2e-096b-4403-a863-e7c28d46b83f" d="M528.67,363.57v13H516a23.22,23.22,0,0,1,7.62-13Z" transform="translate(-479 -349.98)"/><rect class="f7fe0e2e-096b-4403-a863-e7c28d46b83f" x="65.09" y="13.75" width="7.2" height="12.68"/><path class="be9504b5-5c94-40e4-8b60-4ca4a26f8ffb" d="M568.85,397a30.19,30.19,0,0,0,1-32.06c-.28-.48-.57-.94-.87-1.4a30.19,30.19,0,0,0-50.43,0,29,29,0,0,0-1.55,2.64,31,31,0,0,0-2.29,5.71,30.05,30.05,0,0,0-1,4.86,29.09,29.09,0,0,0,0,6.81,28.82,28.82,0,0,0,1,4.86,30.19,30.19,0,0,0,45.86,16.82l16.16,16.17,8.26-8.26ZM557,401.73a25.29,25.29,0,0,1-38.54-20.67c0-.29,0-.58,0-.87a25.3,25.3,0,1,1,50.59,0,25.06,25.06,0,0,1-3.78,13.28A25.44,25.44,0,0,1,557,401.73Z" transform="translate(-479 -349.98)"/><rect class="fc5943a7-5313-4b14-8ae4-2ae94f233e2f" x="48.48" y="31.21" width="6.18" height="12.87"/><rect class="fc5943a7-5313-4b14-8ae4-2ae94f233e2f" x="58.83" y="31.37" width="7.2" height="12.54"/></svg>