<svg id="fe4a700a-9592-4f07-977c-5c7c6c295098" data-name="Ebene 1" xmlns="http://www.w3.org/2000/svg" viewBox="0 0 249 71.46"><defs><style>.bee5488c-7fee-4501-85f8-af79026acb5c{fill:#f26565;}.e5245c45-ab93-4ef0-b1cb-cef1ed4b8af4{fill:#5494fc;}.a1448ab6-0053-42f3-9994-36f93421b195{fill:none;}.f435cbe3-eb3d-4c72-9c5c-59e8f0a778c2{fill:#3b3b3b;}</style></defs><title>echtJetztLogo3</title><path class="bee5488c-7fee-4501-85f8-af79026acb5c" d="M517.48,369a78.46,78.46,0,0,0-1,8H493v-8Z" transform="translate(-479 -349.98)"/><path class="e5245c45-ab93-4ef0-b1cb-cef1ed4b8af4" d="M516.53,389H479v-8h36.58A75.12,75.12,0,0,0,516.53,389Z" transform="translate(-479 -349.98)"/><rect class="e5245c45-ab93-4ef0-b1cb-cef1ed4b8af4" x="69.81" y="31.08" width="14.41" height="12.87"/><path class="e5245c45-ab93-4ef0-b1cb-cef1ed4b8af4" d="M522,381.06v12.07c-3.62-3.55-5.8-7.67-6-12.07Z" transform="translate(-479 -349.98)"/><path class="a1448ab6-0053-42f3-9994-36f93421b195" d="M568.81,376.57H555.44v-13h7.4a25.28,25.28,0,0,0-38.13,0h4v13h-9.93a25.39,25.39,0,0,0-.26,3.62c0,.29,0,.58,0,.87A25.3,25.3,0,0,0,557,401.73a25.44,25.44,0,0,0,8.25-8.26,25.06,25.06,0,0,0,3.78-13.28A25.39,25.39,0,0,0,568.81,376.57Zm-24.72-12.84h7.2v12.68h-7.2Zm-10.36-.16h6.18v13h-6.18Z" transform="translate(-479 -349.98)"/><rect class="bee5488c-7fee-4501-85f8-af79026acb5c" x="54.73" y="13.59" width="6.18" height="13"/><path class="bee5488c-7fee-4501-85f8-af79026acb5c" d="M572,376.57H555.44v-13h9.17A23.43,23.43,0,0,1,572,376.57Z" transform="translate(-479 -349.98)"/><path class="bee5488c-7fee-4501-85f8-af79026acb5c" d="M528.67,363.57v13H516a23.22,23.22,0,0,1,7.62-13Z" transform="translate(-479 -349.98)"/><rect class="bee5488c-7fee-4501-85f8-af79026acb5c" x="65.09" y="13.75" width="7.2" height="12.68"/><path class="f435cbe3-eb3d-4c72-9c5c-59e8f0a778c2" d="M568.85,397a30.19,30.19,0,0,0,1-32.06c-.28-.48-.57-.94-.87-1.4a30.19,30.19,0,0,0-50.43,0,29,29,0,0,0-1.55,2.64,31,31,0,0,0-2.29,5.71,30.05,30.05,0,0,0-1,4.86,29.09,29.09,0,0,0,0,6.81,28.82,28.82,0,0,0,1,4.86,30.19,30.19,0,0,0,45.86,16.82l16.16,16.17,8.26-8.26ZM557,401.73a25.29,25.29,0,0,1-38.54-20.67c0-.29,0-.58,0-.87a25.3,25.3,0,1,1,50.59,0,25.06,25.06,0,0,1-3.78,13.28A25.44,25.44,0,0,1,557,401.73Z" transform="translate(-479 -349.98)"/><path class="f435cbe3-eb3d-4c72-9c5c-59e8f0a778c2" d="M613.12,391.81H600V368.27h13.12v2.43H602.74v7.58h9.75v2.42h-9.75v8.66h10.38Z" transform="translate(-479 -349.98)"/><path class="f435cbe3-eb3d-4c72-9c5c-59e8f0a778c2" d="M625,392.13a7.55,7.55,0,0,1-5.94-2.36,9.7,9.7,0,0,1-2.1-6.67c0-3,.71-5.24,2.14-6.84a7.68,7.68,0,0,1,6.07-2.42,12.28,12.28,0,0,1,2.55.27,8.67,8.67,0,0,1,2,.65l-.83,2.27a12.5,12.5,0,0,0-1.93-.59,9,9,0,0,0-1.85-.23q-5.37,0-5.38,6.86a8.21,8.21,0,0,0,1.31,5,4.57,4.57,0,0,0,3.89,1.74,12,12,0,0,0,4.53-.95v2.36A9.67,9.67,0,0,1,625,392.13Z" transform="translate(-479 -349.98)"/><path class="f435cbe3-eb3d-4c72-9c5c-59e8f0a778c2" d="M645.71,391.81V380.39a4.63,4.63,0,0,0-1-3.22,4,4,0,0,0-3.08-1.06,5,5,0,0,0-4.06,1.51c-.86,1-1.28,2.67-1.28,5v9.23h-2.68V366.76h2.68v7.58a17.5,17.5,0,0,1-.13,2.27h.16a5.44,5.44,0,0,1,2.25-2,7.37,7.37,0,0,1,3.32-.73,6.76,6.76,0,0,1,4.85,1.54q1.62,1.53,1.62,4.89v11.51Z" transform="translate(-479 -349.98)"/><path class="f435cbe3-eb3d-4c72-9c5c-59e8f0a778c2" d="M659.57,389.92a8.75,8.75,0,0,0,1.37-.1,8.1,8.1,0,0,0,1-.22v2a4.89,4.89,0,0,1-1.28.34,9.86,9.86,0,0,1-1.52.14q-5.13,0-5.13-5.39v-10.5h-2.52V375l2.52-1.11,1.13-3.77h1.55v4.09h5.12v2.08h-5.12v10.38a3.54,3.54,0,0,0,.76,2.45A2.61,2.61,0,0,0,659.57,389.92Z" transform="translate(-479 -349.98)"/><path class="f435cbe3-eb3d-4c72-9c5c-59e8f0a778c2" d="M662.49,398a5.42,5.42,0,0,1-2.39-.44v-2.33a9,9,0,0,0,2.39.32,3,3,0,0,0,2.42-1,4.16,4.16,0,0,0,.83-2.78V368.27h2.73v23.31a6.75,6.75,0,0,1-1.54,4.74A5.7,5.7,0,0,1,662.49,398Z" transform="translate(-479 -349.98)"/><path class="f435cbe3-eb3d-4c72-9c5c-59e8f0a778c2" d="M681.78,392.13a8.11,8.11,0,0,1-6.18-2.38,9.23,9.23,0,0,1-2.26-6.62,10.26,10.26,0,0,1,2.1-6.78,7,7,0,0,1,5.64-2.51,6.67,6.67,0,0,1,5.25,2.18,8.36,8.36,0,0,1,1.93,5.76v1.69H676.11a7,7,0,0,0,1.57,4.72,5.43,5.43,0,0,0,4.19,1.61,14.16,14.16,0,0,0,5.64-1.2V391a13.63,13.63,0,0,1-2.68.87A14.88,14.88,0,0,1,681.78,392.13Zm-.73-16.05a4.37,4.37,0,0,0-3.39,1.38,6.41,6.41,0,0,0-1.49,3.83h9.23a5.89,5.89,0,0,0-1.13-3.87A4,4,0,0,0,681.05,376.08Z" transform="translate(-479 -349.98)"/><path class="f435cbe3-eb3d-4c72-9c5c-59e8f0a778c2" d="M698.52,389.92a8.75,8.75,0,0,0,1.37-.1,7.55,7.55,0,0,0,1-.22v2a4.69,4.69,0,0,1-1.27.34,9.87,9.87,0,0,1-1.53.14q-5.11,0-5.12-5.39v-10.5h-2.52V375l2.52-1.11,1.13-3.77h1.55v4.09h5.12v2.08h-5.12v10.38a3.59,3.59,0,0,0,.75,2.45A2.64,2.64,0,0,0,698.52,389.92Z" transform="translate(-479 -349.98)"/><path class="f435cbe3-eb3d-4c72-9c5c-59e8f0a778c2" d="M715.75,391.81H703V390l9.63-13.75h-9v-2.08h12v2.08L706,389.73h9.74Z" transform="translate(-479 -349.98)"/><path class="f435cbe3-eb3d-4c72-9c5c-59e8f0a778c2" d="M725.59,389.92a8.62,8.62,0,0,0,1.36-.1,8.1,8.1,0,0,0,1-.22v2a4.89,4.89,0,0,1-1.28.34,9.75,9.75,0,0,1-1.52.14q-5.12,0-5.12-5.39v-10.5h-2.53V375l2.53-1.11,1.13-3.77h1.54v4.09h5.12v2.08h-5.12v10.38a3.54,3.54,0,0,0,.76,2.45A2.63,2.63,0,0,0,725.59,389.92Z" transform="translate(-479 -349.98)"/><rect class="e5245c45-ab93-4ef0-b1cb-cef1ed4b8af4" x="48.48" y="31.21" width="6.18" height="12.87"/><rect class="e5245c45-ab93-4ef0-b1cb-cef1ed4b8af4" x="58.83" y="31.37" width="7.2" height="12.54"/></svg>